# xmcd CD database file
#
# Track frame offsets:
#	150
#	13182
#	29610
#	42042
#	52735
#	66967
#	79632
#	93327
#	105620
#	122422
#	138297
#	150605
#	164067
#	177612
#	190567
#	203052
#	215412
#	228422
#	239645
#	250775
#	264602
#	278265
#	291417
#	304617
#	318697
#
# Disc length: 4425 seconds
#
# Revision: 1
# Processed by: cddbd v1.5.1PL0 Copyright (c) Steve Scherf et al.
# Submitted via: CDex 1.51
#
DISCID=5f114719
DTITLE=Gene Austin - The Voice of Southland
DYEAR=1996
DGENRE=Vocal
TTITLE0=The Voice of the Southland
TTITLE1=My Blue Heaven
TTITLE2=When My Sugar Walks Down the Street
TTITLE3=My Bundle of Love
TTITLE4=Sweet Child, I'm Wild About You
TTITLE5=Ya Gotta Know How To Love
TTITLE6=Everything's Made For Love
TTITLE7=Ain't She Sweet
TTITLE8=The Lonesome Road
TTITLE9=The Sweetheart of Sigma Chi
TTITLE10=Girl of My Dreams
TTITLE11=Just Like a Melody From Out of the Sky
TTITLE12=Carolina Moon
TTITLE13=I've Got a Feeling I'm Falling
TTITLE14=How Am I To Know
TTITLE15=Rollin' Down The River
TTITLE16=When Your Lover Has Gone
TTITLE17=Please Don't Talk About Me When I'm Gone
TTITLE18=Without That Gal
TTITLE19=Love Letters in the Sand
TTITLE20=A Ghost of a Chance
TTITLE21=Everthing  I Have is Yours
TTITLE22=I Cried For You
TTITLE23=When I'm With You
TTITLE24=Ramona
EXTD=YEAR: 1996
EXTT0=
EXTT1=
EXTT2=
EXTT3=
EXTT4=
EXTT5=
EXTT6=
EXTT7=
EXTT8=
EXTT9=
EXTT10=
EXTT11=
EXTT12=
EXTT13=
EXTT14=
EXTT15=
EXTT16=
EXTT17=
EXTT18=
EXTT19=
EXTT20=
EXTT21=
EXTT22=
EXTT23=
EXTT24=
PLAYORDER=
